<svg xmlns="http://www.w3.org/2000/svg" viewBox="0 0 24 24" width="24" height="24" color="#000000" fill="none">
    <defs />
    <path fill="currentColor" d="M6.951,3.25 L7.049,3.25 C7.714,3.25 8.287,3.25 8.746,3.312 C9.237,3.378 9.709,3.527 10.091,3.909 C10.473,4.291 10.622,4.763 10.688,5.254 C10.75,5.712 10.75,6.284 10.75,6.947 L10.75,17.053 C10.75,17.716 10.75,18.288 10.688,18.746 C10.622,19.237 10.473,19.709 10.091,20.091 C9.709,20.473 9.237,20.622 8.746,20.688 C8.288,20.75 7.716,20.75 7.053,20.75 L6.947,20.75 C6.284,20.75 5.712,20.75 5.254,20.688 C4.763,20.622 4.291,20.473 3.909,20.091 C3.527,19.709 3.378,19.237 3.312,18.746 C3.25,18.287 3.25,17.714 3.25,17.049 L3.25,6.951 C3.25,6.286 3.25,5.713 3.312,5.254 C3.378,4.763 3.527,4.291 3.909,3.909 C4.291,3.527 4.763,3.378 5.254,3.312 C5.713,3.25 6.286,3.25 6.951,3.25 L6.951,3.25 Z M16.951,3.25 L17.049,3.25 C17.714,3.25 18.287,3.25 18.746,3.312 C19.237,3.378 19.709,3.527 20.091,3.909 C20.473,4.291 20.622,4.763 20.688,5.254 C20.75,5.712 20.75,6.284 20.75,6.947 L20.75,17.053 C20.75,17.716 20.75,18.288 20.688,18.746 C20.622,19.237 20.473,19.709 20.091,20.091 C19.709,20.473 19.237,20.622 18.746,20.688 C18.288,20.75 17.716,20.75 17.053,20.75 L16.947,20.75 C16.284,20.75 15.712,20.75 15.254,20.688 C14.762,20.622 14.291,20.473 13.909,20.091 C13.527,19.709 13.378,19.237 13.312,18.746 C13.25,18.288 13.25,17.716 13.25,17.053 L13.25,6.947 C13.25,6.284 13.25,5.712 13.312,5.254 C13.378,4.763 13.527,4.291 13.909,3.909 C14.291,3.527 14.762,3.378 15.254,3.312 C15.713,3.25 16.286,3.25 16.951,3.25 Z M14.97,4.97 C14.913,5.027 14.842,5.129 14.798,5.454 C14.752,5.801 14.75,6.272 14.75,7 L14.75,17 C14.75,17.728 14.752,18.199 14.798,18.546 C14.842,18.871 14.913,18.973 14.97,19.03 C15.027,19.087 15.129,19.158 15.454,19.202 C15.801,19.248 16.272,19.25 17,19.25 C17.728,19.25 18.199,19.248 18.546,19.202 C18.871,19.158 18.973,19.087 19.03,19.03 C19.087,18.973 19.158,18.871 19.202,18.546 C19.248,18.199 19.25,17.728 19.25,17 L19.25,7 C19.25,6.272 19.248,5.801 19.202,5.454 C19.158,5.129 19.087,5.027 19.03,4.97 C18.973,4.913 18.871,4.842 18.546,4.798 C18.199,4.752 17.728,4.75 17,4.75 C16.272,4.75 15.801,4.752 15.454,4.798 C15.129,4.842 15.027,4.913 14.97,4.97 Z M4.97,4.97 C4.913,5.027 4.842,5.129 4.798,5.454 C4.752,5.801 4.75,6.272 4.75,7 L4.75,17 C4.75,17.728 4.752,18.199 4.798,18.546 C4.842,18.871 4.913,18.973 4.97,19.03 C5.027,19.087 5.129,19.158 5.454,19.202 C5.801,19.248 6.272,19.25 7,19.25 C7.728,19.25 8.199,19.248 8.546,19.202 C8.871,19.158 8.973,19.087 9.03,19.03 C9.087,18.973 9.158,18.871 9.202,18.546 C9.248,18.199 9.25,17.728 9.25,17 L9.25,7 C9.25,6.272 9.248,5.801 9.202,5.454 C9.158,5.129 9.087,5.027 9.03,4.97 C8.973,4.913 8.871,4.842 8.546,4.798 C8.199,4.752 7.728,4.75 7,4.75 C6.272,4.75 5.801,4.752 5.454,4.798 C5.129,4.842 5.027,4.913 4.97,4.97 Z" />
</svg>